# Blender 4.2.19 LTS
# www.blender.org
o pinza_1
v 0.005793 -0.008327 -0.004090
v -0.001664 -0.008626 -0.007847
v -0.007181 -0.008348 -0.011097
v -0.007736 -0.008362 0.001498
v -0.007705 0.006774 0.001829
v -0.006572 0.006946 -0.007374
v 0.006155 0.006571 -0.013616
v 0.057634 -0.003321 0.005414
v 0.057946 -0.008262 0.005200
v 0.057870 0.003122 0.005684
v 0.041238 0.006746 0.012515
v 0.041132 -0.008317 0.013127
v 0.030113 0.006681 0.010864
v 0.030862 -0.008303 0.010951
v 0.020402 -0.008310 0.010388
v 0.048433 -0.008321 0.006129
v 0.048252 0.006581 0.005273
v -0.001385 0.006974 -0.002588
v -0.001167 -0.008596 -0.002668
v -0.000626 0.007064 -0.007164
v 0.055115 0.001592 0.019509
v 0.055101 -0.003394 0.019494
v 0.044020 0.001663 0.014145
v 0.043480 -0.003238 0.014234
v 0.009666 -0.008326 0.012325
v 0.014466 -0.008258 -0.012530
v 0.037519 -0.008237 -0.006528
v 0.006515 -0.008306 0.005171
v 0.017202 0.006686 0.010647
v 0.008397 0.006680 0.012928
v 0.005641 0.006610 0.004202
v 0.011168 0.006690 -0.009602
v 0.041137 0.006773 -0.007710
v 0.033864 0.006684 -0.005556
v 0.006925 0.001646 0.011072
v 0.000825 -0.003278 0.023433
v 0.002265 0.001691 0.024203
v -0.004352 -0.003308 0.022051
v -0.005650 0.001656 0.023265
v -0.000847 0.001692 0.022349
v -0.001920 -0.003289 0.012102
v -0.003275 0.001676 0.012295
v 0.005833 -0.003155 0.012471
v -0.007265 -0.003306 0.024141
v 0.066456 -0.003219 0.014627
v 0.066446 0.001576 0.014687
v 0.066745 -0.000841 0.026655
v -0.005007 -0.008607 -0.004992
v 0.002711 -0.003309 0.003339
v -0.007754 -0.000283 0.001828
vn -0.2698 0.9200 0.2844
vn -0.0738 0.7154 0.6949
vn -0.0042 -0.6928 0.7211
vn -0.1334 -0.0009 0.9911
vn 0.0389 -0.7335 0.6786
vn 0.0816 0.7393 0.6684
vn 0.9811 0.1364 -0.1371
vn -0.0919 0.9666 -0.2392
vn -0.5191 0.0640 -0.8523
vn -0.5472 0.7243 -0.4195
vn -0.2958 0.9307 0.2153
vn -0.4041 0.1873 0.8953
vn -0.2926 -0.7273 0.6208
vn -0.1816 0.3623 0.9142
vn -0.2122 -0.2404 0.9472
vn -0.2897 0.6948 0.6583
vn -0.6156 -0.5355 -0.5782
vn 0.5081 -0.7847 -0.3551
vn 0.0034 -0.9992 -0.0401
vn -0.0125 -0.9985 0.0531
vn -0.3442 -0.9269 0.1495
vn 0.5474 -0.8100 0.2106
vn -0.6429 -0.5791 0.5014
vn 0.0120 -0.9997 0.0216
vn 0.6714 -0.3880 -0.6314
vn 0.0051 -1.0000 -0.0009
vn -0.2446 -0.9096 -0.3359
vn 0.8301 -0.5573 0.0203
vn -0.1941 -0.6779 0.7090
vn -0.4582 0.7264 0.5122
vn 0.0234 0.9995 0.0202
vn -0.0614 0.6429 -0.7635
vn -0.6549 0.5742 0.4913
vn -0.0095 0.9998 -0.0164
vn 0.3352 0.6251 -0.7049
vn -0.0050 0.9997 0.0242
vn -0.1518 0.9819 0.1129
vn 0.6056 0.6690 -0.4310
vn -0.3502 0.5969 0.7218
vn 0.8343 -0.3351 -0.4378
vn 0.5321 -0.2454 0.8104
vn 0.3848 -0.6211 0.6827
vn -0.4722 0.1627 0.8663
vn 0.4273 -0.3976 0.8120
vn -0.2876 0.8335 0.4717
vn -0.6223 -0.4605 0.6330
vn -0.3432 0.8920 -0.2943
vn 0.3841 -0.8791 -0.2820
vn -0.5985 -0.5581 -0.5747
vn -0.1524 -0.0807 0.9850
vn -0.1074 0.9933 0.0431
vn 0.4928 0.0011 0.8701
vn 0.7221 -0.6466 -0.2461
vn 0.7381 0.6388 -0.2171
vn -0.8367 0.0848 0.5410
vn -0.8355 -0.4226 -0.3512
vn -0.9474 0.2085 -0.2428
vn 0.8610 -0.1154 -0.4953
vn 0.4725 -0.1781 0.8631
vn -0.4164 -0.1090 0.9026
vn -0.6934 -0.2853 0.6617
vn -0.4657 -0.0979 0.8795
vn -0.8101 -0.5121 0.2856
vn -0.1434 -0.9872 -0.0695
vn -0.1505 -0.9856 -0.0773
vn -0.0055 0.9976 -0.0692
vn 0.0001 1.0000 0.0001
vn -0.0613 -0.9981 -0.0013
s 1
f 11//1 13//2 12//3
f 12//3 13//2 14//4
f 14//4 13//2 15//5
f 13//2 29//6 15//5
f 48//7 18//8 19//9
f 6//10 18//8 48//7
f 19//9 20//11 2//12
f 18//8 20//11 19//9
f 22//13 23//14 24//15
f 21//16 23//14 22//13
f 24//15 11//1 12//3
f 3//17 26//18 2//19
f 14//20 28//21 12//3
f 26//18 1//22 2//19
f 4//23 19//24 28//25
f 28//21 16//26 12//3
f 27//27 9//28 16//26
f 16//26 9//28 12//3
f 19//24 1//22 28//25
f 25//29 28//21 15//5
f 15//5 28//21 14//20
f 11//1 31//30 13//2
f 31//31 7//32 20//11
f 18//8 5//33 31//31
f 32//34 7//32 31//31
f 33//35 7//32 32//34
f 33//35 32//34 34//36
f 31//30 29//6 13//2
f 33//35 34//36 17//37
f 10//38 17//37 11//1
f 33//35 17//37 10//38
f 31//30 30//39 29//6
f 31//31 20//11 18//8
f 12//3 9//28 24//15
f 24//15 9//28 8//40
f 37//41 43//42 35//43
f 36//44 43//42 37//41
f 39//45 36//44 37//41
f 44//46 36//44 39//45
f 39//45 40//47 38//48
f 38//48 40//47 36//49
f 38//48 41//50 42//51
f 38//48 42//51 39//45
f 41//50 36//49 40//47
f 41//50 40//47 42//51
f 47//52 45//53 46//54
f 22//13 47//52 21//16
f 6//10 50//55 5//33
f 3//17 50//55 6//10
f 3//17 4//23 50//55
f 50//56 44//46 39//45
f 10//38 45//53 8//40
f 10//38 46//54 45//53
f 33//35 8//40 9//28
f 33//35 10//38 8//40
f 33//35 9//28 27//27
f 33//35 27//27 26//18
f 7//32 33//35 26//18
f 7//32 26//18 3//17
f 6//10 7//32 3//17
f 2//12 6//10 48//7
f 20//11 6//10 2//12
f 11//1 17//37 16//57
f 11//1 16//57 28//25
f 31//58 11//1 28//25
f 26//18 32//59 1//22
f 32//59 31//58 1//22
f 1//22 31//58 28//25
f 17//37 34//60 16//57
f 16//57 34//60 27//27
f 27//27 32//59 26//18
f 34//60 32//59 27//27
f 30//39 35//43 25//29
f 25//29 35//43 43//42
f 29//6 30//39 25//29
f 15//5 29//6 25//29
f 22//13 45//53 47//52
f 8//40 22//13 24//15
f 8//40 45//53 22//13
f 10//38 23//14 21//16
f 46//54 21//16 47//52
f 46//54 10//38 21//16
f 23//14 10//38 11//1
f 4//23 28//61 49//62
f 49//62 28//61 43//63
f 28//21 25//29 43//42
f 50//55 4//23 49//62
f 36//44 41//64 43//42
f 50//56 49//65 41//64
f 44//46 38//48 36//49
f 44//46 50//56 41//64
f 44//46 41//64 38//48
f 41//64 49//65 43//42
f 30//39 31//30 35//43
f 35//43 31//30 50//55
f 5//33 50//55 31//30
f 35//66 40//47 37//67
f 42//51 40//47 35//66
f 40//47 39//45 37//67
f 50//56 39//45 42//51
f 35//66 50//56 42//51
f 11//1 24//15 23//14
f 18//8 6//10 5//33
f 7//32 6//10 20//11
f 2//19 1//22 19//24
f 3//17 48//68 4//23
f 3//17 2//19 48//68
f 4//23 48//68 19//24
