# Blender 4.2.19 LTS
# www.blender.org
o pinza_2
v -0.007830 -0.007781 0.006570
v -0.000828 -0.007936 0.004903
v -0.003140 0.007744 0.005645
v -0.007452 0.007307 0.010306
v 0.059908 -0.003306 -0.018933
v 0.058914 -0.007639 -0.018056
v 0.053056 -0.002932 -0.014768
v 0.050047 -0.007603 -0.014058
v 0.042097 -0.002917 -0.011653
v 0.041409 -0.007618 -0.011722
v 0.041973 0.006978 -0.011835
v 0.026152 0.007388 -0.010374
v 0.026332 -0.007610 -0.010400
v 0.048520 -0.007652 -0.004741
v 0.045998 0.007378 0.001764
v -0.004510 0.007677 0.001332
v -0.002945 -0.007862 0.000512
v -0.000240 0.007663 0.001618
v 0.054813 0.002687 -0.015738
v 0.055655 0.007367 -0.016509
v 0.068281 -0.004723 -0.023290
v 0.012564 -0.007602 -0.006592
v 0.013601 -0.007427 0.013439
v 0.015607 -0.007600 0.010183
v 0.050367 -0.007530 0.003748
v 0.068161 -0.004165 -0.011652
v 0.007212 -0.007601 0.001119
v -0.002240 -0.007610 -0.014330
v 0.018228 -0.007589 -0.011206
v 0.009796 -0.007579 -0.013168
v 0.004303 -0.007598 -0.025894
v 0.002103 -0.007628 -0.022662
v -0.004330 -0.007588 -0.024780
v 0.039127 0.007235 0.009461
v 0.010123 0.007431 0.007085
v 0.067965 0.005001 -0.023274
v 0.047469 0.007373 -0.006541
v 0.067256 0.007294 -0.010388
v -0.000817 0.007397 -0.013893
v 0.011716 0.007387 -0.006967
v 0.019033 0.007394 -0.011400
v 0.011526 0.007387 -0.012949
v 0.002713 0.007398 -0.025194
v -0.004011 0.007427 -0.024917
v 0.004999 0.007401 -0.016146
v 0.067500 0.002807 -0.010997
v 0.007726 0.002473 -0.014051
v 0.004357 0.002452 -0.025786
v -0.002450 0.002456 -0.024161
v 0.001589 0.002454 -0.023311
v -0.001911 0.002453 -0.013975
v -0.005021 0.002457 -0.026673
v 0.041094 -0.002920 -0.012043
v -0.007593 -0.000599 -0.005552
v -0.005025 -0.002642 -0.026673
v 0.057870 0.002670 -0.002111
v 0.057867 -0.002929 -0.002112
v 0.002714 -0.002658 -0.024982
v -0.003016 -0.002643 -0.023273
v -0.000970 -0.002632 -0.013944
v 0.007765 -0.002672 -0.013573
v 0.008931 0.000229 -0.004282
vn -0.2913 0.7046 -0.6471
vn -0.1677 -0.7936 -0.5848
vn -0.2218 0.7669 -0.6022
vn -0.2235 -0.7028 -0.6754
vn 0.0080 0.7939 -0.6080
vn -0.1817 0.0278 -0.9830
vn -0.1603 0.7747 -0.6117
vn -0.0183 0.9750 -0.2215
vn -0.0873 0.0007 -0.9962
vn 0.0025 -0.7272 -0.6864
vn 0.0575 -0.0085 -0.9983
vn -0.7375 0.0105 0.6753
vn -0.8786 0.4145 0.2373
vn -0.6808 0.0854 -0.7275
vn -0.0004 0.9564 -0.2922
vn -0.6334 -0.6942 0.3420
vn 0.2055 0.9399 0.2727
vn -0.0531 -0.9428 0.3292
vn -0.2656 0.9559 0.1249
vn -0.3408 -0.9267 -0.1583
vn -0.2623 0.7080 -0.6556
vn -0.3147 -0.7742 -0.5492
vn 0.0255 -0.9997 0.0033
vn -0.0021 -1.0000 -0.0028
vn 0.9554 0.1038 0.2763
vn 0.6484 0.0229 -0.7609
vn 0.0226 -0.9997 -0.0069
vn 0.0619 -0.9808 -0.1847
vn -0.0072 -0.9989 0.0463
vn -0.0064 -0.6013 0.7990
vn -0.3970 -0.8624 -0.3140
vn 0.3950 -0.6546 0.6446
vn 0.1139 -0.7235 -0.6809
vn -0.0005 -1.0000 -0.0043
vn 0.2981 -0.7551 -0.5840
vn 0.2937 -0.9544 0.0530
vn 0.5945 -0.5294 -0.6053
vn -0.9528 -0.1695 0.2519
vn 0.6948 0.6440 0.3202
vn 0.5184 -0.0041 -0.8551
vn 0.0097 0.9993 0.0368
vn 0.0067 1.0000 -0.0042
vn -0.6115 0.5375 0.5807
vn 0.0070 0.9996 0.0259
vn 0.0038 0.9852 -0.1715
vn -0.2554 0.8979 -0.3586
vn -0.0078 0.9998 -0.0208
vn 0.1216 0.7070 -0.6967
vn 0.2040 0.7157 -0.6679
vn 0.0205 0.9993 0.0324
vn 0.4218 0.8696 -0.2567
vn 0.1592 0.8285 -0.5369
vn 0.7191 -0.6479 0.2511
vn 0.5545 0.0098 -0.8321
vn 0.6512 0.3118 -0.6919
vn -0.6470 0.3256 -0.6895
vn 0.6060 0.3971 0.6892
vn -0.8600 0.3586 0.3630
vn 0.1991 0.2142 -0.9563
vn -0.6110 0.1196 0.7825
vn -0.9959 0.0271 -0.0867
vn -0.5515 0.4601 -0.6959
vn 0.5556 0.1552 0.8168
vn 0.6169 -0.0556 0.7851
vn 0.3061 -0.0212 0.9517
vn 0.4771 0.6070 -0.6355
vn 0.1520 0.5908 -0.7924
vn 0.8307 -0.3577 0.4265
vn -0.7453 0.0852 0.6613
vn -0.0439 -0.0654 -0.9969
vn 0.4422 0.0609 0.8948
vn 0.2346 0.0375 0.9714
vn 0.1841 -0.0222 -0.9827
vn 0.9233 -0.0268 -0.3830
vn 0.6835 -0.2177 -0.6967
vn 0.9667 -0.2310 0.1103
vn 0.8200 0.0606 0.5691
vn -0.5801 -0.0332 -0.8139
vn -0.3888 -0.9187 -0.0692
vn 0.1634 -0.9768 -0.1383
vn 0.0004 -1.0000 0.0007
vn -0.0004 -1.0000 -0.0001
vn 0.0002 -1.0000 0.0009
vn 0.0879 -0.9959 -0.0218
vn 0.4596 0.0601 -0.8861
vn 0.0771 0.9883 -0.1314
vn 0.0035 1.0000 -0.0017
vn 0.0568 0.9982 -0.0217
vn -0.1271 -0.9915 0.0273
vn 0.5149 -0.0226 -0.8570
vn 0.5114 -0.0080 -0.8593
vn 0.5095 -0.0002 -0.8605
vn 0.5161 -0.0278 -0.8561
s 1
f 5//1 6//2 7//3
f 6//2 8//4 7//3
f 7//3 8//4 9//5
f 8//4 10//6 9//5
f 11//7 10//6 12//8
f 10//9 13//10 12//11
f 37//12 14//13 15//14
f 3//15 1//16 16//17
f 1//16 17//18 16//17
f 16//17 17//18 18//19
f 17//18 2//20 18//19
f 20//21 19//22 11//7
f 14//23 22//24 13//10
f 26//25 6//2 21//26
f 27//27 2//20 28//28
f 2//20 17//18 28//28
f 24//29 23//30 27//27
f 27//27 23//30 2//20
f 28//28 1//16 33//31
f 17//18 1//16 28//28
f 2//20 23//30 1//16
f 26//25 25//32 6//2
f 14//23 25//32 24//29
f 6//2 25//32 8//4
f 13//10 22//24 29//33
f 25//32 14//23 8//4
f 8//4 14//23 10//34
f 25//32 23//30 24//29
f 29//33 22//24 30//35
f 32//36 33//31 31//37
f 10//34 14//23 13//10
f 30//35 28//28 32//38
f 22//24 27//27 30//35
f 27//27 28//28 30//35
f 20//21 38//39 36//40
f 18//19 35//41 40//42
f 4//43 34//44 35//41
f 18//19 40//42 39//45
f 3//15 35//41 18//19
f 4//43 35//41 3//15
f 16//17 18//19 39//45
f 16//17 39//45 44//46
f 4//43 16//17 44//46
f 40//42 37//47 12//8
f 40//42 12//8 41//48
f 37//47 20//21 11//7
f 37//47 38//39 20//21
f 40//42 41//48 42//49
f 15//50 38//39 37//47
f 34//44 38//39 15//50
f 37//47 11//7 12//8
f 34//44 15//50 35//41
f 39//45 45//51 43//52
f 39//45 42//49 45//51
f 39//45 40//42 42//49
f 36//40 38//39 46//53
f 20//21 36//40 19//22
f 42//49 47//54 45//51
f 48//55 45//51 47//54
f 43//52 45//51 48//55
f 52//56 43//52 48//55
f 44//46 43//52 52//56
f 44//46 49//57 43//52
f 49//57 50//58 43//52
f 44//46 51//59 49//57
f 44//46 39//45 51//59
f 39//45 50//58 51//59
f 39//45 43//52 50//58
f 9//5 10//6 53//60
f 4//43 54//61 1//16
f 54//61 33//31 1//16
f 54//61 55//62 33//31
f 54//61 44//46 52//56
f 4//43 44//46 54//61
f 1//16 23//30 4//43
f 56//63 46//53 38//39
f 57//64 25//32 26//25
f 34//65 57//64 56//63
f 34//65 56//63 38//39
f 25//32 57//64 34//65
f 23//30 25//32 34//65
f 23//30 34//65 4//43
f 58//66 61//67 31//37
f 31//37 61//67 32//36
f 33//31 55//62 31//37
f 55//62 58//66 31//37
f 18//19 2//20 3//15
f 2//20 1//16 3//15
f 59//68 33//31 58//69
f 33//31 32//38 58//69
f 59//68 60//70 28//28
f 59//68 28//28 33//31
f 60//70 58//69 32//38
f 60//70 32//38 28//28
f 30//35 32//36 61//67
f 22//71 14//13 37//12
f 22//71 37//12 40//72
f 24//73 27//74 35//75
f 35//75 27//74 40//76
f 27//77 22//71 40//72
f 14//13 24//73 15//14
f 15//14 24//73 35//75
f 42//49 61//67 47//54
f 42//49 30//35 61//67
f 29//33 30//35 42//49
f 41//48 29//33 42//49
f 13//10 29//33 12//11
f 12//11 29//33 41//48
f 53//60 10//6 11//7
f 62//78 47//79 61//67
f 47//79 51//80 50//81
f 50//81 49//82 48//83
f 47//79 50//81 48//83
f 47//79 62//78 51//80
f 49//82 51//80 52//84
f 48//83 49//82 52//84
f 62//78 54//85 51//80
f 51//80 54//85 52//84
f 58//66 60//86 61//67
f 59//87 58//66 55//62
f 55//62 54//85 60//86
f 54//85 62//78 60//86
f 55//62 60//86 59//87
f 60//86 62//78 61//67
f 5//1 26//25 21//26
f 7//3 26//25 5//1
f 9//5 57//88 7//3
f 57//88 26//25 7//3
f 53//60 57//88 9//5
f 46//53 19//22 36//40
f 46//53 56//89 19//22
f 56//89 11//7 19//22
f 53//90 56//91 57//92
f 11//93 56//91 53//90
f 21//26 6//2 5//1
f 4//43 3//15 16//17
